<mxfile host="app.diagrams.net" agent="Mozilla/5.0 (Windows NT 10.0; Win64; x64) AppleWebKit/537.36 (KHTML, like Gecko) Chrome/140.0.0.0 Safari/537.36 Edg/140.0.0.0" version="28.2.7">
  <diagram name="Page-1" id="J9Nxk47wH8EBoOw84kji">
    <mxGraphModel dx="1418" dy="876" grid="1" gridSize="10" guides="1" tooltips="1" connect="1" arrows="1" fold="1" page="1" pageScale="1" pageWidth="1169" pageHeight="827" math="0" shadow="0">
      <root>
        <mxCell id="0" />
        <mxCell id="1" parent="0" />
        <mxCell id="knMMeGDZHDrUyNm1BoIw-12" style="edgeStyle=orthogonalEdgeStyle;rounded=0;orthogonalLoop=1;jettySize=auto;html=1;exitX=1;exitY=0.5;exitDx=0;exitDy=0;entryX=0;entryY=0.5;entryDx=0;entryDy=0;" parent="1" source="nYu5nA_VwJleSnZgO8h8-1" target="nYu5nA_VwJleSnZgO8h8-13" edge="1">
          <mxGeometry relative="1" as="geometry" />
        </mxCell>
        <mxCell id="knMMeGDZHDrUyNm1BoIw-13" style="edgeStyle=orthogonalEdgeStyle;rounded=0;orthogonalLoop=1;jettySize=auto;html=1;exitX=1;exitY=0.25;exitDx=0;exitDy=0;entryX=0;entryY=0.5;entryDx=0;entryDy=0;" parent="1" source="nYu5nA_VwJleSnZgO8h8-1" target="nYu5nA_VwJleSnZgO8h8-12" edge="1">
          <mxGeometry relative="1" as="geometry">
            <Array as="points">
              <mxPoint x="720" y="330" />
              <mxPoint x="720" y="260" />
            </Array>
          </mxGeometry>
        </mxCell>
        <mxCell id="knMMeGDZHDrUyNm1BoIw-21" style="edgeStyle=orthogonalEdgeStyle;rounded=0;orthogonalLoop=1;jettySize=auto;html=1;exitX=1;exitY=0.75;exitDx=0;exitDy=0;entryX=0;entryY=0.5;entryDx=0;entryDy=0;" parent="1" source="nYu5nA_VwJleSnZgO8h8-1" target="nYu5nA_VwJleSnZgO8h8-14" edge="1">
          <mxGeometry relative="1" as="geometry">
            <Array as="points">
              <mxPoint x="720" y="430" />
              <mxPoint x="720" y="520" />
            </Array>
          </mxGeometry>
        </mxCell>
        <mxCell id="nYu5nA_VwJleSnZgO8h8-1" value="update-ca-trust extract" style="rounded=0;whiteSpace=wrap;html=1;fontFamily=Courier New;" parent="1" vertex="1">
          <mxGeometry x="460" y="280" width="200" height="200" as="geometry" />
        </mxCell>
        <mxCell id="knMMeGDZHDrUyNm1BoIw-4" style="edgeStyle=orthogonalEdgeStyle;rounded=0;orthogonalLoop=1;jettySize=auto;html=1;exitX=1;exitY=0.5;exitDx=0;exitDy=0;entryX=0;entryY=0.25;entryDx=0;entryDy=0;" parent="1" source="nYu5nA_VwJleSnZgO8h8-2" target="nYu5nA_VwJleSnZgO8h8-1" edge="1">
          <mxGeometry relative="1" as="geometry" />
        </mxCell>
        <mxCell id="nYu5nA_VwJleSnZgO8h8-2" value="&lt;div&gt;/etc/pki/ca-trust/source/*&lt;/div&gt;/etc/pki/ca-trust/source/anchors/*&lt;div&gt;/etc/pki/ca-trust/source/blacklist/*&lt;/div&gt;" style="shape=parallelogram;perimeter=parallelogramPerimeter;whiteSpace=wrap;html=1;fixedSize=1;align=left;spacingLeft=35;" parent="1" vertex="1">
          <mxGeometry x="100" y="300" width="250" height="60" as="geometry" />
        </mxCell>
        <mxCell id="knMMeGDZHDrUyNm1BoIw-5" style="edgeStyle=orthogonalEdgeStyle;rounded=0;orthogonalLoop=1;jettySize=auto;html=1;exitX=1;exitY=0.5;exitDx=0;exitDy=0;entryX=0;entryY=0.75;entryDx=0;entryDy=0;" parent="1" source="nYu5nA_VwJleSnZgO8h8-3" target="nYu5nA_VwJleSnZgO8h8-1" edge="1">
          <mxGeometry relative="1" as="geometry" />
        </mxCell>
        <mxCell id="nYu5nA_VwJleSnZgO8h8-3" value="/usr/share/pki/ca-trust-source/*&lt;div&gt;/usr/share/pki/ca-trust-source/anchors/*&lt;/div&gt;&lt;div&gt;/usr/share/pki/ca-trust-source/blacklists/*&lt;/div&gt;" style="shape=parallelogram;perimeter=parallelogramPerimeter;whiteSpace=wrap;html=1;fixedSize=1;align=left;labelPosition=center;verticalLabelPosition=middle;verticalAlign=middle;spacingLeft=24;" parent="1" vertex="1">
          <mxGeometry x="110" y="390" width="270" height="80" as="geometry" />
        </mxCell>
        <mxCell id="nYu5nA_VwJleSnZgO8h8-12" value="/etc/pki/ca-trust/extracted/java/cacerts" style="shape=parallelogram;perimeter=parallelogramPerimeter;whiteSpace=wrap;html=1;fixedSize=1;" parent="1" vertex="1">
          <mxGeometry x="809" y="230" width="321" height="60" as="geometry" />
        </mxCell>
        <mxCell id="nYu5nA_VwJleSnZgO8h8-13" value="/etc/pki/ca-trust/extracted/openssl/ca-bundle.trust.crt" style="shape=parallelogram;perimeter=parallelogramPerimeter;whiteSpace=wrap;html=1;fixedSize=1;" parent="1" vertex="1">
          <mxGeometry x="809" y="350" width="321" height="60" as="geometry" />
        </mxCell>
        <mxCell id="nYu5nA_VwJleSnZgO8h8-14" value="/etc/pki/ca-trust/extracted/pem/tls-ca-bundle.pem&lt;div&gt;/etc/pki/ca-trust/extracted/pem/email-ca-bundle.pem&lt;/div&gt;&lt;div&gt;/etc/pki/ca-trust/extracted/pem/objsign-ca-bundle.pem&lt;/div&gt;" style="shape=parallelogram;perimeter=parallelogramPerimeter;whiteSpace=wrap;html=1;fixedSize=1;align=center;" parent="1" vertex="1">
          <mxGeometry x="809" y="470" width="321" height="100" as="geometry" />
        </mxCell>
        <mxCell id="nYu5nA_VwJleSnZgO8h8-36" value="RHEL: Trusted CA Management" style="text;html=1;whiteSpace=wrap;strokeColor=none;fillColor=none;align=center;verticalAlign=middle;rounded=0;fontSize=20;fontStyle=5;labelBorderColor=none;spacingLeft=0;" parent="1" vertex="1">
          <mxGeometry x="100" y="150" width="330" height="30" as="geometry" />
        </mxCell>
        <mxCell id="nYu5nA_VwJleSnZgO8h8-37" value="Sysadmin" style="shape=umlActor;verticalLabelPosition=bottom;verticalAlign=top;html=1;outlineConnect=0;" parent="1" vertex="1">
          <mxGeometry x="430" y="540" width="30" height="60" as="geometry" />
        </mxCell>
        <mxCell id="knMMeGDZHDrUyNm1BoIw-29" style="edgeStyle=orthogonalEdgeStyle;curved=1;rounded=0;orthogonalLoop=1;jettySize=auto;html=1;exitX=0.25;exitY=0;exitDx=0;exitDy=0;entryX=1;entryY=0.75;entryDx=0;entryDy=0;dashed=1;dashPattern=8 8;" parent="1" source="nYu5nA_VwJleSnZgO8h8-42" target="nYu5nA_VwJleSnZgO8h8-3" edge="1">
          <mxGeometry relative="1" as="geometry">
            <Array as="points">
              <mxPoint x="427" y="448" />
            </Array>
          </mxGeometry>
        </mxCell>
        <mxCell id="knMMeGDZHDrUyNm1BoIw-30" style="edgeStyle=orthogonalEdgeStyle;curved=1;rounded=0;orthogonalLoop=1;jettySize=auto;html=1;exitX=0.5;exitY=0;exitDx=0;exitDy=0;entryX=1;entryY=0.75;entryDx=0;entryDy=0;dashed=1;dashPattern=8 8;" parent="1" source="nYu5nA_VwJleSnZgO8h8-42" target="nYu5nA_VwJleSnZgO8h8-2" edge="1">
          <mxGeometry relative="1" as="geometry">
            <Array as="points">
              <mxPoint x="445" y="343" />
            </Array>
          </mxGeometry>
        </mxCell>
        <mxCell id="knMMeGDZHDrUyNm1BoIw-32" style="edgeStyle=orthogonalEdgeStyle;curved=1;rounded=0;orthogonalLoop=1;jettySize=auto;html=1;exitX=1;exitY=0.25;exitDx=0;exitDy=0;entryX=0.5;entryY=1;entryDx=0;entryDy=0;dashed=1;dashPattern=8 8;" parent="1" source="nYu5nA_VwJleSnZgO8h8-42" target="nYu5nA_VwJleSnZgO8h8-1" edge="1">
          <mxGeometry relative="1" as="geometry" />
        </mxCell>
        <mxCell id="nYu5nA_VwJleSnZgO8h8-42" value="" style="rounded=1;whiteSpace=wrap;html=1;fillColor=none;" parent="1" vertex="1">
          <mxGeometry x="410" y="530" width="70" height="100" as="geometry" />
        </mxCell>
        <mxCell id="knMMeGDZHDrUyNm1BoIw-2" value="high prio; flat directory; formats: &#39;man update-ca-trust&#39;" style="text;html=1;whiteSpace=wrap;strokeColor=none;fillColor=none;align=center;verticalAlign=middle;rounded=0;rotation=0;fontColor=#B3B3B3;fontSize=10;" parent="1" vertex="1">
          <mxGeometry x="100" y="358" width="240" height="21" as="geometry" />
        </mxCell>
        <mxCell id="knMMeGDZHDrUyNm1BoIw-3" value="low prio; flat directory; formats: &#39;man update-ca-trust&#39;" style="text;html=1;whiteSpace=wrap;strokeColor=none;fillColor=none;align=center;verticalAlign=middle;rounded=0;rotation=0;fontColor=#B3B3B3;fontSize=10;" parent="1" vertex="1">
          <mxGeometry x="117" y="470" width="240" height="21" as="geometry" />
        </mxCell>
        <mxCell id="knMMeGDZHDrUyNm1BoIw-15" value="appends to" style="text;html=1;whiteSpace=wrap;strokeColor=none;fillColor=none;align=center;verticalAlign=middle;rounded=0;" parent="1" vertex="1">
          <mxGeometry x="720" y="240" width="70" height="20" as="geometry" />
        </mxCell>
        <mxCell id="knMMeGDZHDrUyNm1BoIw-16" value="appends to" style="text;html=1;whiteSpace=wrap;strokeColor=none;fillColor=none;align=center;verticalAlign=middle;rounded=0;" parent="1" vertex="1">
          <mxGeometry x="720" y="359" width="70" height="20" as="geometry" />
        </mxCell>
        <mxCell id="knMMeGDZHDrUyNm1BoIw-20" value="appends to" style="text;html=1;whiteSpace=wrap;strokeColor=none;fillColor=none;align=center;verticalAlign=middle;rounded=0;" parent="1" vertex="1">
          <mxGeometry x="720" y="500" width="70" height="20" as="geometry" />
        </mxCell>
        <mxCell id="knMMeGDZHDrUyNm1BoIw-31" value="modifies" style="text;html=1;whiteSpace=wrap;strokeColor=none;fillColor=none;align=center;verticalAlign=middle;rounded=0;" parent="1" vertex="1">
          <mxGeometry x="370" y="500" width="60" height="20" as="geometry" />
        </mxCell>
        <mxCell id="knMMeGDZHDrUyNm1BoIw-33" value="executes" style="text;html=1;whiteSpace=wrap;strokeColor=none;fillColor=none;align=center;verticalAlign=middle;rounded=0;" parent="1" vertex="1">
          <mxGeometry x="537" y="530" width="60" height="30" as="geometry" />
        </mxCell>
        <mxCell id="knMMeGDZHDrUyNm1BoIw-35" value="(text, all trusted certs)" style="text;html=1;whiteSpace=wrap;strokeColor=none;fillColor=none;align=center;verticalAlign=middle;rounded=0;fontColor=#B3B3B3;" parent="1" vertex="1">
          <mxGeometry x="904.5" y="570" width="130" height="20" as="geometry" />
        </mxCell>
        <mxCell id="knMMeGDZHDrUyNm1BoIw-36" value="(text, all certs including trust/distrust flags)" style="text;html=1;whiteSpace=wrap;strokeColor=none;fillColor=none;align=center;verticalAlign=middle;rounded=0;fontColor=#B3B3B3;" parent="1" vertex="1">
          <mxGeometry x="854.5" y="410" width="230" height="24" as="geometry" />
        </mxCell>
        <mxCell id="knMMeGDZHDrUyNm1BoIw-37" value="(binary, all trusted certs)" style="text;html=1;whiteSpace=wrap;strokeColor=none;fillColor=none;align=center;verticalAlign=middle;rounded=0;fontColor=#B3B3B3;" parent="1" vertex="1">
          <mxGeometry x="899.5" y="290" width="140" height="20" as="geometry" />
        </mxCell>
        <mxCell id="77wlcX93n9jric51yaw8-1" value="© 2025 Stefan Rickli — CC BY-SA 4.0" style="text;html=1;whiteSpace=wrap;strokeColor=none;fillColor=none;align=center;verticalAlign=middle;rounded=0;fontSize=7;" vertex="1" parent="1">
          <mxGeometry x="1000" y="610" width="130" height="20" as="geometry" />
        </mxCell>
      </root>
    </mxGraphModel>
  </diagram>
</mxfile>
